<svg width="81" height="34" viewBox="0 0 81 34" fill="none" xmlns="http://www.w3.org/2000/svg">
<g filter="url(#filter0_dd_63_167)">
<rect x="4" width="73" height="26" rx="4" fill="#F4D04E" shape-rendering="crispEdges"/>
<rect x="4.5" y="0.5" width="72" height="25" rx="3.5" stroke="black" shape-rendering="crispEdges"/>
<rect x="4.5" y="0.5" width="72" height="25" rx="3.5" stroke="black" stroke-opacity="0.2" shape-rendering="crispEdges"/>
<rect x="4.5" y="0.5" width="72" height="25" rx="3.5" stroke="black" stroke-opacity="0.2" shape-rendering="crispEdges"/>
<path d="M16.816 17V8.6H18.748V15.224H22.324V17H16.816ZM26.0311 17.144C25.4071 17.144 24.8551 17.012 24.3751 16.748C23.8951 16.484 23.5191 16.116 23.2471 15.644C22.9751 15.172 22.8391 14.624 22.8391 14C22.8391 13.376 22.9751 12.828 23.2471 12.356C23.5191 11.884 23.8951 11.516 24.3751 11.252C24.8631 10.988 25.4231 10.856 26.0551 10.856C26.6231 10.856 27.1351 10.992 27.5911 11.264C28.0471 11.536 28.4071 11.944 28.6711 12.488C28.9431 13.024 29.0791 13.688 29.0791 14.48H24.5671L24.7711 14.252C24.7711 14.524 24.8271 14.764 24.9391 14.972C25.0511 15.18 25.2071 15.34 25.4071 15.452C25.6071 15.556 25.8311 15.608 26.0791 15.608C26.3751 15.608 26.6231 15.544 26.8231 15.416C27.0231 15.28 27.1631 15.112 27.2431 14.912L28.9111 15.476C28.7511 15.86 28.5231 16.176 28.2271 16.424C27.9391 16.672 27.6071 16.856 27.2311 16.976C26.8551 17.088 26.4551 17.144 26.0311 17.144ZM24.8191 13.484L24.6271 13.232H27.3151L27.1351 13.484C27.1351 13.18 27.0751 12.944 26.9551 12.776C26.8351 12.6 26.6871 12.472 26.5111 12.392C26.3431 12.312 26.1711 12.272 25.9951 12.272C25.8191 12.272 25.6391 12.312 25.4551 12.392C25.2791 12.472 25.1271 12.6 24.9991 12.776C24.8791 12.944 24.8191 13.18 24.8191 13.484ZM33.4299 17L33.3699 15.704V14.012C33.3699 13.692 33.3419 13.412 33.2859 13.172C33.2379 12.932 33.1379 12.748 32.9859 12.62C32.8419 12.484 32.6299 12.416 32.3499 12.416C32.1259 12.416 31.9299 12.468 31.7619 12.572C31.5939 12.676 31.4499 12.816 31.3299 12.992L29.6859 12.452C29.8299 12.156 30.0179 11.888 30.2499 11.648C30.4899 11.408 30.7819 11.216 31.1259 11.072C31.4699 10.928 31.8699 10.856 32.3259 10.856C32.9499 10.856 33.4779 10.972 33.9099 11.204C34.3419 11.436 34.6659 11.76 34.8819 12.176C35.0979 12.592 35.2059 13.084 35.2059 13.652L35.1819 17H33.4299ZM31.7859 17.144C31.0819 17.144 30.5339 16.988 30.1419 16.676C29.7499 16.356 29.5539 15.9 29.5539 15.308C29.5539 14.676 29.7579 14.204 30.1659 13.892C30.5739 13.58 31.1459 13.424 31.8819 13.424H33.5259V14.636H32.5779C32.1859 14.636 31.9019 14.692 31.7259 14.804C31.5499 14.908 31.4619 15.06 31.4619 15.26C31.4619 15.404 31.5259 15.52 31.6539 15.608C31.7899 15.688 31.9739 15.728 32.2059 15.728C32.4379 15.728 32.6379 15.68 32.8059 15.584C32.9819 15.48 33.1179 15.344 33.2139 15.176C33.3179 15.008 33.3699 14.828 33.3699 14.636H33.8499C33.8499 15.428 33.6779 16.044 33.3339 16.484C32.9979 16.924 32.4819 17.144 31.7859 17.144ZM37.7264 13.892C37.7264 13.244 37.8544 12.704 38.1104 12.272C38.3744 11.84 38.7024 11.516 39.0944 11.3C39.4944 11.084 39.9104 10.976 40.3424 10.976V12.8C39.9744 12.8 39.6264 12.84 39.2984 12.92C38.9784 13 38.7184 13.124 38.5184 13.292C38.3184 13.452 38.2184 13.66 38.2184 13.916L37.7264 13.892ZM36.3464 17V11H38.2184V17H36.3464ZM41.1276 17V11H42.8916L42.9996 12.104V17H41.1276ZM44.9916 17V13.928H46.8636V17H44.9916ZM44.9916 13.928C44.9916 13.608 44.9556 13.356 44.8836 13.172C44.8116 12.98 44.7076 12.84 44.5716 12.752C44.4436 12.664 44.2836 12.616 44.0916 12.608C43.7316 12.6 43.4596 12.7 43.2756 12.908C43.0916 13.108 42.9996 13.416 42.9996 13.832H42.4356C42.4356 13.2 42.5316 12.664 42.7236 12.224C42.9156 11.776 43.1756 11.436 43.5036 11.204C43.8396 10.972 44.2276 10.856 44.6676 10.856C45.1476 10.856 45.5516 10.956 45.8796 11.156C46.2076 11.348 46.4516 11.644 46.6116 12.044C46.7796 12.444 46.8636 12.956 46.8636 13.58V13.928H44.9916ZM48.1145 17V11H49.9865V17H48.1145ZM49.0505 10.232C48.7705 10.232 48.5225 10.128 48.3065 9.92C48.0985 9.704 47.9945 9.456 47.9945 9.176C47.9945 8.88 48.0985 8.632 48.3065 8.432C48.5225 8.224 48.7705 8.12 49.0505 8.12C49.3385 8.12 49.5865 8.224 49.7945 8.432C50.0025 8.632 50.1065 8.88 50.1065 9.176C50.1065 9.456 50.0025 9.704 49.7945 9.92C49.5865 10.128 49.3385 10.232 49.0505 10.232ZM51.3229 17V11H53.0869L53.1949 12.104V17H51.3229ZM55.1869 17V13.928H57.0589V17H55.1869ZM55.1869 13.928C55.1869 13.608 55.1509 13.356 55.0789 13.172C55.0069 12.98 54.9029 12.84 54.7669 12.752C54.6389 12.664 54.4789 12.616 54.2869 12.608C53.9269 12.6 53.6549 12.7 53.4709 12.908C53.2869 13.108 53.1949 13.416 53.1949 13.832H52.6309C52.6309 13.2 52.7269 12.664 52.9189 12.224C53.1109 11.776 53.3709 11.436 53.6989 11.204C54.0349 10.972 54.4229 10.856 54.8629 10.856C55.3429 10.856 55.7469 10.956 56.0749 11.156C56.4029 11.348 56.6469 11.644 56.8069 12.044C56.9749 12.444 57.0589 12.956 57.0589 13.58V13.928H55.1869ZM61.0338 19.568C60.5458 19.568 60.1178 19.536 59.7498 19.472C59.3898 19.408 59.0818 19.324 58.8258 19.22C58.5698 19.116 58.3578 19 58.1898 18.872L58.9218 17.384C59.0498 17.44 59.2018 17.508 59.3778 17.588C59.5538 17.676 59.7698 17.752 60.0258 17.816C60.2818 17.88 60.5898 17.912 60.9498 17.912C61.2298 17.912 61.4778 17.856 61.6938 17.744C61.9178 17.64 62.0898 17.472 62.2098 17.24C62.3378 17.016 62.4018 16.732 62.4018 16.388V11H64.2738V16.316C64.2738 16.988 64.1458 17.568 63.8898 18.056C63.6338 18.544 63.2658 18.916 62.7858 19.172C62.3058 19.436 61.7218 19.568 61.0338 19.568ZM60.6018 16.772C60.0418 16.772 59.5578 16.66 59.1498 16.436C58.7498 16.204 58.4378 15.876 58.2138 15.452C57.9978 15.028 57.8898 14.524 57.8898 13.94C57.8898 13.3 57.9978 12.752 58.2138 12.296C58.4378 11.84 58.7498 11.488 59.1498 11.24C59.5578 10.984 60.0418 10.856 60.6018 10.856C61.0658 10.856 61.4658 10.984 61.8018 11.24C62.1458 11.488 62.4098 11.844 62.5938 12.308C62.7778 12.772 62.8698 13.328 62.8698 13.976C62.8698 14.552 62.7778 15.048 62.5938 15.464C62.4098 15.88 62.1458 16.204 61.8018 16.436C61.4658 16.66 61.0658 16.772 60.6018 16.772ZM61.1538 15.212C61.3938 15.212 61.5978 15.156 61.7658 15.044C61.9418 14.924 62.0738 14.764 62.1618 14.564C62.2578 14.364 62.3058 14.136 62.3058 13.88C62.3058 13.608 62.2578 13.372 62.1618 13.172C62.0658 12.972 61.9298 12.816 61.7538 12.704C61.5858 12.592 61.3818 12.536 61.1418 12.536C60.9098 12.536 60.7018 12.592 60.5178 12.704C60.3418 12.816 60.2018 12.972 60.0978 13.172C60.0018 13.372 59.9498 13.608 59.9418 13.88C59.9498 14.136 60.0018 14.364 60.0978 14.564C60.2018 14.764 60.3458 14.924 60.5298 15.044C60.7138 15.156 60.9218 15.212 61.1538 15.212Z" fill="#111111"/>
</g>
<defs>
<filter id="filter0_dd_63_167" x="0" y="0" width="81" height="34" filterUnits="userSpaceOnUse" color-interpolation-filters="sRGB">
<feFlood flood-opacity="0" result="BackgroundImageFix"/>
<feColorMatrix in="SourceAlpha" type="matrix" values="0 0 0 0 0 0 0 0 0 0 0 0 0 0 0 0 0 0 127 0" result="hardAlpha"/>
<feOffset dy="4"/>
<feGaussianBlur stdDeviation="2"/>
<feComposite in2="hardAlpha" operator="out"/>
<feColorMatrix type="matrix" values="0 0 0 0 0 0 0 0 0 0 0 0 0 0 0 0 0 0 0.25 0"/>
<feBlend mode="normal" in2="BackgroundImageFix" result="effect1_dropShadow_63_167"/>
<feColorMatrix in="SourceAlpha" type="matrix" values="0 0 0 0 0 0 0 0 0 0 0 0 0 0 0 0 0 0 127 0" result="hardAlpha"/>
<feOffset dy="4"/>
<feGaussianBlur stdDeviation="2"/>
<feComposite in2="hardAlpha" operator="out"/>
<feColorMatrix type="matrix" values="0 0 0 0 0 0 0 0 0 0 0 0 0 0 0 0 0 0 0.25 0"/>
<feBlend mode="normal" in2="effect1_dropShadow_63_167" result="effect2_dropShadow_63_167"/>
<feBlend mode="normal" in="SourceGraphic" in2="effect2_dropShadow_63_167" result="shape"/>
</filter>
</defs>
</svg>
